<svg width="25" height="25" viewBox="0 0 25 25" fill="none" xmlns="http://www.w3.org/2000/svg">
<g clip-path="url(#clip0_170_14220)">
<path d="M8.15795 19.4043C8.15795 19.502 8.04485 19.5801 7.90224 19.5801C7.73997 19.5947 7.62687 19.5166 7.62687 19.4043C7.62687 19.3066 7.73997 19.2285 7.88257 19.2285C8.03009 19.2139 8.15795 19.292 8.15795 19.4043ZM6.62864 19.1846C6.59422 19.2822 6.69256 19.3945 6.84009 19.4238C6.96794 19.4727 7.11546 19.4238 7.14496 19.3262C7.17447 19.2285 7.08104 19.1162 6.93352 19.0723C6.80566 19.0381 6.66306 19.0869 6.62864 19.1846ZM8.80212 19.1016C8.65952 19.1357 8.56117 19.2285 8.57592 19.3408C8.59068 19.4385 8.71853 19.502 8.86605 19.4678C9.00865 19.4336 9.107 19.3408 9.09225 19.2432C9.0775 19.1504 8.94473 19.0869 8.80212 19.1016ZM12.0378 0.390625C5.21735 0.390625 0 5.53223 0 12.3047C0 17.7197 3.43234 22.3535 8.33497 23.9844C8.9644 24.0967 9.18568 23.7109 9.18568 23.3936C9.18568 23.0908 9.17093 21.4209 9.17093 20.3955C9.17093 20.3955 5.72876 21.1279 5.0059 18.9404C5.0059 18.9404 4.44532 17.5195 3.63887 17.1533C3.63887 17.1533 2.51278 16.3867 3.71755 16.4014C3.71755 16.4014 4.94197 16.499 5.61566 17.6611C6.69256 19.5459 8.49725 19.0039 9.20043 18.6816C9.31353 17.9004 9.63316 17.3584 9.98722 17.0361C7.23839 16.7334 4.46499 16.3379 4.46499 11.6406C4.46499 10.2979 4.83871 9.62402 5.62549 8.76465C5.49764 8.44727 5.07966 7.13867 5.75334 5.44922C6.78108 5.13184 9.14634 6.76758 9.14634 6.76758C10.1298 6.49414 11.1871 6.35254 12.2345 6.35254C13.2819 6.35254 14.3391 6.49414 15.3226 6.76758C15.3226 6.76758 17.6878 5.12695 18.7156 5.44922C19.3893 7.14355 18.9713 8.44727 18.8434 8.76465C19.6302 9.62891 20.1121 10.3027 20.1121 11.6406C20.1121 16.3525 17.2158 16.7285 14.467 17.0361C14.9194 17.4219 15.3029 18.1543 15.3029 19.3018C15.3029 20.9473 15.2882 22.9834 15.2882 23.3838C15.2882 23.7012 15.5144 24.0869 16.1389 23.9746C21.0563 22.3535 24.3902 17.7197 24.3902 12.3047C24.3902 5.53223 18.8582 0.390625 12.0378 0.390625ZM4.7797 17.2314C4.71577 17.2803 4.73053 17.3926 4.81412 17.4854C4.8928 17.5635 5.0059 17.5977 5.06983 17.5342C5.13375 17.4854 5.119 17.373 5.03541 17.2803C4.95673 17.2021 4.84363 17.168 4.7797 17.2314ZM4.24862 16.8359C4.2142 16.8994 4.26337 16.9775 4.36172 17.0264C4.4404 17.0752 4.53875 17.0605 4.57317 16.9922C4.60759 16.9287 4.55842 16.8506 4.46007 16.8018C4.36172 16.7725 4.28304 16.7871 4.24862 16.8359ZM5.84186 18.5742C5.76318 18.6377 5.79268 18.7842 5.90578 18.877C6.01888 18.9893 6.16149 19.0039 6.22541 18.9258C6.28934 18.8623 6.25983 18.7158 6.16149 18.623C6.0533 18.5107 5.90578 18.4961 5.84186 18.5742ZM5.28127 17.8564C5.2026 17.9053 5.2026 18.0322 5.28127 18.1445C5.35995 18.2568 5.49272 18.3057 5.55665 18.2568C5.63533 18.1934 5.63533 18.0664 5.55665 17.9541C5.4878 17.8418 5.35995 17.793 5.28127 17.8564Z" fill="#333333"/>
</g>
<defs>
<clipPath id="clip0_170_14220">
<rect width="24.3902" height="25" fill="white"/>
</clipPath>
</defs>
</svg>
