<svg width="25" height="25" viewBox="0 0 25 25" fill="none" xmlns="http://www.w3.org/2000/svg">
<g clip-path="url(#clip0_170_14266)">
<path fill-rule="evenodd" clip-rule="evenodd" d="M1.7179 8.35349C-0.572635 10.644 -0.572635 14.3573 1.7179 16.6476L8.35291 23.2828C10.6434 25.5732 14.3567 25.5732 16.647 23.2828L23.2823 16.6476C25.5726 14.3571 25.5726 10.6438 23.2823 8.35349L16.647 1.71849C14.3565 -0.571833 10.6432 -0.571833 8.35291 1.71849L1.7179 8.35349ZM15.4028 15.4036C17.0062 13.8002 17.0062 11.2009 15.4028 9.59773C13.7996 7.99435 11.2003 7.99435 9.59715 9.59773C7.99377 11.2011 7.99377 13.8002 9.59715 15.4036C11.2005 17.0068 13.7996 17.0068 15.403 15.4036H15.4028Z" fill="#F8F8F8"/>
</g>
<defs>
<clipPath id="clip0_170_14266">
<rect width="25" height="25" fill="white"/>
</clipPath>
</defs>
</svg>
