<svg width="40" height="40" viewBox="0 0 40 40" fill="none" xmlns="http://www.w3.org/2000/svg">
<path d="M20 0C8.97133 0 0 8.97133 0 20C0 31.0287 8.97133 40 20 40C31.0287 40 40 31.0287 40 20C40 8.97133 31.0287 0 20 0ZM20 38.3334C9.89094 38.3334 1.66664 30.1091 1.66664 20C1.66664 9.89094 9.89094 1.66664 20 1.66664C30.1091 1.66664 38.3334 9.89094 38.3334 20C38.3334 30.1091 30.1091 38.3334 20 38.3334Z" fill="white"/>
<path d="M23.9222 10.2442C23.5966 9.91861 23.0693 9.91861 22.7438 10.2442L13.5772 19.4108C13.2516 19.7363 13.2516 20.2637 13.5772 20.5892L22.7438 29.7558C22.9065 29.9185 23.1198 29.9999 23.333 29.9999C23.5462 29.9999 23.7594 29.9185 23.9222 29.7558C24.2478 29.4303 24.2478 28.9029 23.9222 28.5774L15.3447 20L23.9222 11.4225C24.2477 11.0971 24.2477 10.5697 23.9222 10.2442Z" fill="white"/>
</svg>
