<svg width="26" height="25" viewBox="0 0 26 25" fill="none" xmlns="http://www.w3.org/2000/svg">
<path d="M0.736397 8.31026H5.93031V25H0.736397V8.31026ZM3.36793 0C5.02998 0 6.3458 1.31582 6.3458 2.97787C6.3458 4.63993 5.02998 5.95567 3.36793 5.95567C1.70588 5.95567 0.390137 4.63993 0.390137 2.97787C0.390137 1.31582 1.70588 0 3.36793 0Z" fill="#333333"/>
<path d="M9.18506 8.31023H14.1712V10.5956H14.2405C14.933 9.27979 16.5951 7.89473 19.1574 7.89473C24.4205 7.89473 25.3901 11.3573 25.3901 15.8587V25H20.1962V16.8975C20.1962 14.9584 20.1961 12.4654 17.4953 12.4654C14.7945 12.4654 14.379 14.543 14.379 16.759V25H9.18506V8.31023Z" fill="#333333"/>
</svg>
