<svg width="25" height="25" viewBox="0 0 25 25" fill="none" xmlns="http://www.w3.org/2000/svg">
<path d="M23.1086 20.7039L25 22.5301V22.5907H15.4062V22.5301L17.332 20.7039C17.5375 20.5348 17.6359 20.2664 17.5887 20.0028V8.32894C17.5887 7.83558 17.5887 7.16878 17.6746 6.59847L11.2031 22.8242H11.1262L4.425 7.89612L4.14258 7.24691V17.0352C4.06229 17.6899 4.17227 18.3538 4.45938 18.9477L7.15547 22.5305V22.591H0V22.5305L2.69609 18.9391C2.98125 18.3485 3.08672 17.6875 3.0125 17.0352V6.21722C3.05625 5.68441 2.89727 5.15472 2.56719 4.73753L0.658984 2.23636V2.17581H7.50586L13.2402 14.8196L18.2898 2.17581H24.9914V2.23636L23.1086 4.35667C22.8828 4.52347 22.7703 4.80511 22.8176 5.08323V20.0028C22.7929 20.1353 22.8073 20.2721 22.8589 20.3966C22.9106 20.5211 22.9973 20.6278 23.1086 20.7039Z" fill="#333333"/>
</svg>
