<svg width="31" height="25" viewBox="0 0 31 25" fill="none" xmlns="http://www.w3.org/2000/svg">
<path d="M29.4826 0.44484C28.3261 1.15658 26.9915 1.69035 25.568 1.95725C24.4114 0.711701 22.81 0 21.0307 0C17.6499 0 14.8919 2.84696 14.8919 6.31671C14.8919 6.85052 14.9809 7.29534 15.0699 7.74018C9.90972 7.47327 5.3723 4.98215 2.34739 1.15652C1.81358 2.13517 1.54666 3.20287 1.54666 4.35946C1.54666 6.58366 2.61425 8.4519 4.30464 9.60848C3.326 9.60848 2.34737 9.2527 1.54666 8.80786V8.8968C1.54666 11.9217 3.68187 14.5018 6.52884 15.1246C5.99504 15.3025 5.46129 15.3025 4.92749 15.3025C4.57161 15.3025 4.12673 15.3025 3.77086 15.2135C4.57157 17.7046 6.79577 19.573 9.55378 19.573C7.41855 21.2634 4.74953 22.242 1.90255 22.242C1.36874 22.242 0.923945 22.242 0.390137 22.1531C3.14815 23.9324 6.35097 25 9.82073 25C21.1197 25 27.3474 15.3915 27.3474 7.0285C27.3474 6.76159 27.3474 6.49467 27.3474 6.22776C28.5929 5.33808 29.5716 4.18143 30.4613 2.93588C29.3937 3.46969 28.1481 3.73668 26.9025 3.91462C28.0591 3.20287 29.0378 1.9573 29.4826 0.44484Z" fill="#F8F8F8"/>
</svg>
